# xmcd CD database file
#
# Track frame offsets:
#	150
#	11372
#	25435
#	41327
#	58590
#	66760
#	83307
#	100270
#	115217
#	128192
#	138245
#	150085
#	167642
#	181765
#	202507
#	214570
#	230955
#	242545
#	259992
#	275865
#	286787
#	296830
#	309515
#	320630
#
# Disc length: 4409 seconds
#
# Revision: 0
# Processed by: cddbd v1.5.1PL2 Copyright (c) Steve Scherf et al.
# Submitted via: CDex 1.51
#
DISCID=48113718
DTITLE=Rangers - To nejlepsi potreti - cd1
DYEAR=2006
DGENRE=Country
TTITLE0=Hi Jolly
TTITLE1=Fata morgana
TTITLE2=Bezci dlouhych trati
TTITLE3=Bile utesy osudu
TTITLE4=Big Rock Candy Mountain
TTITLE5=Znam mista casem zavata
TTITLE6=25 minut a dost
TTITLE7=Zas bude, pani vse ok
TTITLE8=Poplujem dal
TTITLE9=Neotalej
TTITLE10=Buldog
TTITLE11=V dalce hrajou blues
TTITLE12=Jsi mym osudem
TTITLE13=Jizni Cechy
TTITLE14=Slunovlaska
TTITLE15=Svita
TTITLE16=Na start
TTITLE17=Novodoby Robinson
TTITLE18=Zatceni
TTITLE19=Denver
TTITLE20=Hory a niziny
TTITLE21=Je ze me tulak
TTITLE22=Uz mam jen jedinej cent
TTITLE23=Vi to kazdej, vi
EXTD=YEAR: 2006
EXTT0=
EXTT1=
EXTT2=
EXTT3=
EXTT4=
EXTT5=
EXTT6=
EXTT7=
EXTT8=
EXTT9=
EXTT10=
EXTT11=
EXTT12=
EXTT13=
EXTT14=
EXTT15=
EXTT16=
EXTT17=
EXTT18=
EXTT19=
EXTT20=
EXTT21=
EXTT22=
EXTT23=
PLAYORDER=
